HIERARCHY
ROOT Hips
{
  OFFSET 179.979 97.3047 303.174
  CHANNELS 6 Xposition Yposition Zposition Zrotation Xrotation Yrotation
  JOINT Spine
  {
    OFFSET 0.000859786 9.92346 -1.22733
    CHANNELS 3 Zrotation Xrotation Yrotation
    JOINT Spine1
    {
      OFFSET 0 11.732 0
      CHANNELS 3 Zrotation Xrotation Yrotation
      JOINT Spine2
      {
        OFFSET 0 13.4588 0
        CHANNELS 3 Zrotation Xrotation Yrotation
        JOINT Neck
        {
          OFFSET 2.54812e-05 15.0278 0.877907
          CHANNELS 3 Zrotation Xrotation Yrotation
          JOINT Head
          {
            OFFSET 0 10.3218 3.14243
            CHANNELS 3 Zrotation Xrotation Yrotation
            End Site
            {
              OFFSET 0 0 0
            }
          }
        }
        JOINT LeftShoulder
        {
          OFFSET 6.10582 9.10629 0.757062
          CHANNELS 3 Zrotation Xrotation Yrotation
          JOINT LeftArm
          {
            OFFSET 0 12.9223 0
            CHANNELS 3 Zrotation Xrotation Yrotation
            JOINT LeftForeArm
            {
              OFFSET 0 27.4047 0
              CHANNELS 3 Zrotation Xrotation Yrotation
              JOINT LeftHand
              {
                OFFSET -1.28204e-05 27.6145 0
                CHANNELS 3 Zrotation Xrotation Yrotation
                End Site
                {
                  OFFSET 0 0 0
                }
              }
            }
          }
        }
        JOINT RightShoulder
        {
          OFFSET -6.1057 9.10638 0.757076
          CHANNELS 3 Zrotation Xrotation Yrotation
          JOINT RightArm
          {
            OFFSET 0 12.9223 0
            CHANNELS 3 Zrotation Xrotation Yrotation
            JOINT RightForeArm
            {
              OFFSET 0 27.4047 0
              CHANNELS 3 Zrotation Xrotation Yrotation
              JOINT RightHand
              {
                OFFSET 1.28428e-05 27.6145 1.44975e-05
                CHANNELS 3 Zrotation Xrotation Yrotation
                End Site
                {
                  OFFSET 0 0 0
                }
              }
            }
          }
        }
      }
    }
  }
  JOINT LeftUpLeg
  {
    OFFSET 9.12387 -6.65719 -0.0554031
    CHANNELS 3 Zrotation Xrotation Yrotation
    JOINT LeftLeg
    {
      OFFSET 0 40.5994 0
      CHANNELS 3 Zrotation Xrotation Yrotation
      JOINT LeftFoot
      {
        OFFSET 0 42.099 0
        CHANNELS 3 Zrotation Xrotation Yrotation
        JOINT LeftToeBase
        {
          OFFSET 0 15.7216 0
          CHANNELS 3 Zrotation Xrotation Yrotation
          End Site
          {
            OFFSET 0 0 0
          }
        }
      }
    }
  }
  JOINT RightUpLeg
  {
    OFFSET -9.12503 -6.6556 -0.0553527
    CHANNELS 3 Zrotation Xrotation Yrotation
    JOINT RightLeg
    {
      OFFSET 0 40.5994 0
      CHANNELS 3 Zrotation Xrotation Yrotation
      JOINT RightFoot
      {
        OFFSET 0 42.099 0
        CHANNELS 3 Zrotation Xrotation Yrotation
        JOINT RightToeBase
        {
          OFFSET 0 15.7216 0
          CHANNELS 3 Zrotation Xrotation Yrotation
          End Site
          {
            OFFSET 0 0 0
          }
        }
      }
    }
  }
}
MOTION
Frames:	18
Frame Time:	0.0333333
24.3181 86.6943 446.99 2.62545 -21.1958 -179.313 -0.480466 -3.5102 -0.354908 -0.947729 6.9307 -0.565365 -0.87921 13.5249 -0.577465 4.46308 2.29269 -0.593169 -4.19047 -24.6884 0.780954 -92.9048 -11.6251 90.6542 17.9919 62.7122 -4.74848 98.3656 0.992038 1.38556 8.10951 -13.5108 11.5176 100.751 -7.27515 -91.7381 25.4121 50.3429 -46.3066 -57.5509 -7.84138 0.720493 -3.85128 -21.6798 5.10912 -179.283 37.7935 -16.274 2.35681 -65.5422 -1.56907 154.366 80.5035 -150.803 -0.965274 26.367 -3.60229 174.366 36.8935 0.586591 -35.1952 -84.1292 -26.5427 -3.57099 57.4842 11.6238 0.963539 26.3682 3.55537 
23.9508 85.8126 442.026 4.45064 -20.869 -176.053 -0.331168 -3.15265 -1.2507 -0.585343 7.64998 -2.40663 -0.297817 14.2385 -2.46102 6.98592 3.22998 -0.281078 -5.24732 -25.1908 1.9208 -92.0613 -11.2968 90.6651 31.6899 59.4172 -19.8367 100.359 1.50944 1.47165 6.35907 -14.6415 3.46828 100.706 -8.73557 -91.4603 32.5443 48.2135 -52.716 -56.9263 -7.05167 0.693633 -3.38938 -28.5058 9.70752 -177.88 32.7538 -16.2706 1.99639 -64.233 -0.208016 165.746 77.9725 -161.701 -0.965274 26.367 -3.60229 177.729 47.072 -0.568069 -156.421 -81.9041 -149.203 -3.87534 61.5771 11.3416 0.963539 26.3682 3.55537 
23.4087 85.5707 436.284 7.04682 -20.8769 -171.822 0.18942 -2.97857 -2.21683 0.536903 7.98182 -4.5093 1.0746 14.5554 -4.61377 8.50845 3.63544 0.0178961 -6.44009 -25.145 2.74609 -90.72 -10.5941 90.6831 40.2112 54.7772 -29.3746 103.021 1.99202 1.58114 5.60479 -14.5096 -1.25558 100.093 -10.6205 -91.0795 40.632 42.8186 -59.3593 -59.7953 -5.48004 0.639474 -6.00106 -33.87 8.60735 -175.663 26.848 -16.1155 1.56366 -60.2897 1.60648 173.582 76.8709 -169.069 -0.965274 26.367 -3.60229 179.461 57.5227 2.85645 -167.016 -75.4622 -160.326 -7.82613 66.6706 12.8547 0.963539 26.3682 3.55537 
22.4896 86.0477 429.7 9.18479 -20.8096 -168.42 0.840915 -2.89795 -3.14389 1.92126 8.09717 -6.57655 2.70409 14.6472 -6.72981 8.92326 3.44284 0.601928 -7.87101 -24.7115 3.49741 -89.586 -10.0768 90.6572 42.4401 50.3055 -32.4914 105.478 2.33842 1.68009 6.26814 -13.0784 0.162518 98.5246 -11.8077 -90.8151 47.2348 35.2298 -65.0822 -65.3704 -3.69606 0.571264 -10.5001 -36.3893 4.60592 -173.505 19.1235 -16.6944 0.477898 -52.7037 3.14352 -179.512 78.9517 -175.299 -0.965274 26.367 -3.60229 179.206 66.1298 8.31735 -168.05 -74.8169 -161.359 -12.8235 72.1902 16.9232 0.963539 26.3682 3.55537 
20.965 87.2025 422.313 10.9127 -20.7334 -166.757 1.56225 -2.85964 -3.91477 3.43351 8.10047 -8.35177 4.42571 14.6233 -8.54559 8.25904 2.77108 1.62291 -9.46384 -24.2503 4.33389 -88.5661 -10.3512 90.5661 39.832 47.6532 -29.7653 106.97 2.5689 1.74131 7.17229 -11.6413 4.98368 96.2429 -11.3712 -90.8152 51.9798 28.2826 -69.765 -71.4565 -2.39609 0.505666 -13.4773 -37.3188 2.44416 -172.156 10.0831 -16.4047 -0.710664 -41.8392 4.76119 -153.229 86.3526 158.157 -0.965274 26.367 -3.60229 179.35 71.2257 12.862 -164.228 -80.5297 -158.155 -16.2886 76.0988 19.7207 0.963539 26.3682 3.55537 
18.9745 88.694 414.349 11.6807 -21.2115 -166.819 2.14535 -2.91221 -4.41676 4.63829 7.92277 -9.53847 5.769 14.4239 -9.75547 6.69908 2.23661 2.78032 -10.9412 -24.4162 5.00323 -87.9648 -11.2087 90.4632 34.6408 46.623 -21.8541 106.892 2.61621 1.73999 7.12632 -10.894 8.91597 94.3554 -9.39562 -91.0146 56.2073 24.1355 -72.8482 -76.0197 -1.69688 0.459208 -14.6056 -38.3559 2.34418 -173.061 2.50983 -14.0086 -0.828701 -30.4185 4.57505 -9.69036 76.3222 11.3737 -0.965274 26.367 -3.60229 -177.929 72.591 12.8985 -33.5552 -87.9794 -29.4034 -14.966 79.8748 18.5415 0.963539 26.3682 3.55537 
16.8352 89.976 406.222 11.38 -22.3762 -167.907 2.46632 -3.06555 -4.53275 5.27628 7.57893 -9.86118 6.44299 14.0738 -10.078 4.37885 2.4904 3.63095 -11.9805 -25.5419 5.06647 -87.9209 -11.9211 90.407 29.5451 46.6532 -11.3811 104.85 2.34375 1.65793 6.04384 -10.2231 10.7108 93.9713 -7.22403 -91.2723 60.5999 23.3923 -73.1934 -78.5531 -1.30459 0.430854 -15.5566 -38.5852 1.55772 -175.359 -1.23346 -11.3405 0.955818 -23.9379 2.94913 -8.38261 56.4235 2.07623 -0.965274 26.367 -3.60229 -173.721 70.8347 10.2236 2.81845 -75.3522 4.79962 -8.84857 82.5691 13.1686 0.963539 26.3682 3.55537 
14.8424 90.7137 398.036 8.99382 -23.6539 -169.858 2.27842 -3.22817 -4.297 4.86668 7.2847 -9.32124 5.9688 13.7902 -9.5206 1.21459 3.96856 3.92028 -12.3714 -27.7043 4.16037 -88.3776 -12.0636 90.4198 25.8202 48.0079 -1.43729 100.929 1.62538 1.49568 4.46203 -8.83246 11.5917 95.2147 -6.39773 -91.4729 64.1089 25.7942 -70.4042 -80.0518 -1.19818 0.417011 -15.9151 -34.3621 -0.768911 -177.935 -0.2581 -11.8242 2.14317 -29.8341 2.13467 -9.49611 50.0319 -0.830342 -0.965274 26.367 -3.60229 -172.72 66.3952 10.6381 3.27451 -64.2246 5.99733 -19.4822 84.2662 23.9875 0.963539 26.3682 3.55537 
13.1579 90.5643 390.527 6.638 -24.0235 -171.605 1.96948 -3.19636 -3.74635 4.21313 7.39959 -8.1243 5.1755 13.9264 -8.3004 -2.32424 6.74791 3.48718 -12.4311 -31.0548 2.09745 -89.0706 -11.7188 90.4832 23.2149 50.7682 6.56104 95.6618 0.464833 1.27545 3.02055 -7.36264 13.5437 97.4633 -7.48917 -91.4742 65.0051 30.6255 -64.4608 -81.2553 -1.12022 0.385756 -13.6816 -24.0067 -3.75071 -178.727 4.70828 -14.6268 3.72679 -46.577 4.02679 -8.42899 51.7478 -0.0846265 -0.965274 26.367 -3.60229 -172.802 60.9801 13.164 1.65335 -59.012 6.88302 -26.9375 82.4706 31.7362 0.963539 26.3682 3.55537 
11.6759 89.7162 383.1 4.13859 -23.3478 -173.234 1.57959 -2.98827 -2.96282 3.39186 7.87251 -6.44134 4.1578 14.4244 -6.58778 -4.27005 9.60458 2.21305 -13.1891 -34.7688 -0.616798 -89.8406 -11.0926 90.5813 20.8973 55.099 13.0162 89.2812 -1.20699 1.0082 2.8785 -7.76625 17.9636 100.606 -9.98272 -91.2202 59.7914 37.8294 -54.3854 -80.5924 -1.12062 0.410434 -9.39366 -12.4692 -7.08255 -178.435 12.6224 -17.2277 9.88525 -68.4854 8.67278 -4.73079 51.7914 -1.58547 -0.965274 26.367 -3.60229 -173.33 54.1305 15.2397 -1.105 -58.8215 4.75927 -91.0828 84.5294 88.6736 0.963539 26.3682 3.55537 
10.3026 88.2554 375.833 2.71069 -22.5038 -174.858 1.37191 -2.74358 -2.04994 2.92228 8.40054 -4.55281 3.46592 14.9737 -4.66142 -3.73037 10.4198 0.70776 -14.5443 -37.4348 -2.62354 -90.802 -10.6144 90.6869 15.7003 60.0387 20.7886 82.154 -4.09941 0.689366 4.8356 -10.6227 23.4352 104.763 -12.4023 -90.86 43.6899 45.2294 -39.5084 -76.6116 -2.83641 0.491741 -6.32076 -7.08578 -9.53764 -176.033 23.0105 -19.2933 125.301 -85.8134 121.912 3.17086 54.7151 -4.06624 -0.965274 26.367 -3.60229 -173.359 47.1843 14.545 -2.46468 -59.4545 3.52132 -149.011 78.9229 143.856 0.963539 26.3682 3.55537 
8.90059 87.1161 368.719 2.65389 -22.7764 -177.567 1.33419 -2.66555 -1.11181 2.77901 8.58253 -2.65952 3.09758 15.1697 -2.7236 -2.50125 8.1461 0.260783 -14.8108 -38.2426 -2.72158 -92.4618 -11.0559 90.7055 1.67224 62.9936 35.2505 76.9508 -8.6561 0.382744 7.39862 -14.3736 25.711 108.087 -13.2385 -90.7215 18.323 48.9631 -21.4505 -72.5518 -5.84786 0.612557 -6.10089 -9.08163 -8.61136 -171.261 37.5799 -23.2088 170.756 -67.0283 166.28 10.6093 56.5406 -5.60959 -0.965274 26.367 -3.60229 -171.477 41.527 10.9755 -2.54407 -59.149 3.94147 -158.576 74.2504 154.498 0.963539 26.3682 3.55537 
7.31717 86.5965 361.229 0.896782 -23.9742 177.947 0.811272 -2.78413 -0.298028 1.65851 8.37351 -0.856037 1.76188 14.9672 -0.875846 -1.93548 4.12753 0.808465 -13.2681 -37.2384 -1.46848 -93.0601 -12.4137 90.5637 -22.638 60.3636 50.566 78.4124 -6.37371 0.502246 8.93402 -16.4632 24.2547 107.306 -12.5414 -90.8856 -3.6581 51.8784 -3.81809 -75.1834 -5.33495 0.58146 -7.95169 -12.5283 -6.03652 -164.749 54.3122 -29.5838 173.946 -53.4364 169.763 14.4571 60.6154 -6.92709 -0.965274 26.367 -3.60229 -172.536 35.4114 8.18845 -2.44177 -56.3757 2.98695 -165.438 71.0072 163.515 0.963539 26.3682 3.55537 
5.66991 86.9046 353.046 -2.01625 -24.8554 174.147 -0.115428 -2.96706 0.430744 -0.266126 8.0142 0.90131 -0.371974 14.6079 0.92243 -1.5305 1.33968 0.759306 -10.9437 -35.6709 -0.853335 -91.08 -13.4001 90.4148 -40.8228 49.6382 60.922 86.6211 -1.75113 0.904086 8.69272 -17.157 18.0487 101.614 -11.9496 -90.8761 -19.7749 58.9733 13.2437 -86.4075 -0.225331 0.33503 -9.94711 -11.812 -1.77641 -153.238 70.909 -39.7915 174.649 -49.416 170.11 16.006 62.9668 -8.66045 -0.965274 26.367 -3.60229 -176.519 27.6379 7.55185 -2.4046 -50.1058 1.25752 -170.037 70.7421 170.089 0.963539 26.3682 3.55537 
4.07939 88.051 343.414 -4.99496 -24.8384 172.597 -1.15064 -3.09489 1.20209 -2.40562 7.72776 2.7715 -2.7334 14.3144 2.83372 -0.366689 2.22722 -0.774002 -9.01949 -35.7056 -1.90149 -88.9095 -12.5003 90.4096 -46.8619 35.3653 64.8603 97.0022 0.616607 1.32713 7.5415 -16.5348 10.9365 94.1641 -12.5822 -90.5891 -32.077 65.2119 21.4332 -101.454 1.71017 0.110879 -11.0202 -9.50627 4.42779 -137.559 80.8055 -53.8792 174.462 -55.7868 169.071 20.5346 66.859 -12.1526 -0.965274 26.367 -3.60229 178.485 16.8104 8.18663 -1.79583 -39.3964 0.352653 -171.797 76.5636 173.755 0.963539 26.3682 3.55537 
2.66294 89.8239 332.355 -6.26374 -24.9098 173.815 -1.77574 -3.26367 1.84588 -3.70108 7.3468 4.25084 -4.20348 13.9228 4.34264 1.74401 6.96674 -3.11129 -7.79138 -38.8868 -3.80808 -86.993 -9.6482 90.5109 -49.5579 25.6067 66.3203 104.533 1.811 1.63003 6.54811 -14.5459 7.67491 90.0096 -13.4793 -90.3891 -33.3581 64.6916 15.9964 -115.086 2.65584 -0.111244 -12.0729 -8.04687 7.3633 -134.456 85.1823 -54.9079 172.903 -69.7964 166.075 24.5355 70.4206 -17.5326 -0.965274 26.367 -3.60229 175.523 6.01488 9.10194 -1.7989 -27.4457 -0.0901884 5.17975 85.6538 1.03401 0.963539 26.3682 3.55537 
1.37602 91.554 320.898 -4.69593 -25.5706 177.182 -1.64552 -3.46437 2.14191 -3.44711 6.94304 4.79702 -4.01318 13.514 4.89669 4.2129 12.6515 -5.2371 -7.17119 -43.7283 -5.37145 -86.3593 -6.83488 90.6351 -51.9433 23.5334 67.4952 107.558 2.07209 1.74732 6.0121 -12.8648 8.29976 89.348 -13.3643 -90.3754 -27.9966 59.1758 2.35187 -122.492 2.43176 -0.222974 -12.6042 -3.66576 5.77908 -171.841 84.9606 -15.0138 133.124 -88.0651 128.442 21.2941 73.5448 -15.2795 -0.965274 26.367 -3.60229 176.669 0.140422 10.4456 -3.83697 -21.0872 1.506 8.95862 59.9352 5.27469 0.963539 26.3682 3.55537 
0.0200272 92.2972 309.674 -0.585152 -25.6363 -178.603 -0.806495 -3.42859 2.18439 -1.76319 7.05561 4.62806 -2.30974 13.6282 4.726 6.42261 15.0371 -6.67092 -6.99602 -46.5296 -6.10355 -87.0794 -6.183 90.7469 -52.6488 28.6688 68.7309 107.688 1.93579 1.74785 6.18023 -12.757 10.0353 90.2239 -11.9599 -90.5471 -21.833 54.5591 -9.16254 -120.43 1.80563 -0.169946 -10.8865 3.56207 2.37151 178.039 79.1189 -2.64222 3.84438 -71.6888 3.32082 5.38752 77.6244 -4.52552 -0.965274 26.367 -3.60229 -179.432 0.809764 11.6884 -7.08324 -30.9211 -0.158527 7.2365 52.7832 5.78121 0.963539 26.3682 3.55537 
